<?xml version="1.0" encoding="UTF-8" standalone="no"?>
<svg
   width="16"
   height="16"
   version="1.1"
   id="svg1"
   sodipodi:docname="icon.svg"
   inkscape:version="1.3 (0e150ed6c4, 2023-07-21)"
   xmlns:inkscape="http://www.inkscape.org/namespaces/inkscape"
   xmlns:sodipodi="http://sodipodi.sourceforge.net/DTD/sodipodi-0.dtd"
   xmlns="http://www.w3.org/2000/svg"
   xmlns:svg="http://www.w3.org/2000/svg">
  <defs
     id="defs1" />
  <sodipodi:namedview
     id="namedview1"
     pagecolor="#505050"
     bordercolor="#eeeeee"
     borderopacity="1"
     inkscape:showpageshadow="0"
     inkscape:pageopacity="0"
     inkscape:pagecheckerboard="0"
     inkscape:deskcolor="#505050"
     inkscape:zoom="17.964932"
     inkscape:cx="-5.7055603"
     inkscape:cy="15.725081"
     inkscape:window-width="1920"
     inkscape:window-height="1009"
     inkscape:window-x="1912"
     inkscape:window-y="-8"
     inkscape:window-maximized="1"
     inkscape:current-layer="svg1" />
  <g
     id="g4"
     transform="matrix(0.99253744,0,0,0.99253744,0.30831938,-0.27766968)">
    <path
       id="path1"
       d="M 6.1152462,0.88080175 A 0.81710201,0.81710201 0 0 0 5.5375297,1.1201871 L 2.2691213,4.3885953 a 0.81710201,0.81710201 0 0 0 0,1.1554329 L 5.5375297,8.8124364 A 0.81710201,0.81710201 0 0 0 6.1152462,9.0518219 H 12.652062 A 0.81710201,0.81710201 0 0 0 13.469164,8.2347198 V 1.6979037 A 0.81710201,0.81710201 0 0 0 12.652062,0.88080175 Z M 8.8155126,1.3085035 h 0.8171025 v 0.817102 h 0.8171019 v -0.817102 h 2.451306 V 8.6624222 H 10.449717 V 7.8453201 H 9.6326151 V 8.6624222 H 8.8155126 V 7.8453201 h -0.817102 v -0.817102 h 0.817102 V 6.2111161 H 7.9984106 V 5.394014 h 0.817102 V 4.5769119 h -0.817102 v -0.817102 h 0.817102 V 2.9427075 h -0.817102 v -0.817102 h 0.817102 z m 0,0.817102 v 0.817102 h 0.8171025 v -0.817102 z m 0.8171025,0.817102 V 3.7598099 H 10.449717 V 2.9427075 Z m 0,0.8171024 H 8.8155126 v 0.817102 h 0.8171025 z m 0,0.817102 V 5.394014 H 10.449717 V 4.5769119 Z m 0,0.8171021 H 8.8155126 v 0.8171021 h 0.8171025 z m 0,0.8171021 v 0.817102 h 0.8171019 v -0.817102 z m 0,0.817102 H 8.8155126 v 0.817102 H 9.6326151 Z M 5.298144,4.1492097 a 0.81710201,0.81710201 0 0 1 0,1.634204 0.81710201,0.81710201 0 0 1 0,-1.634204 z"
       style="fill:#8eef97;fill-opacity:1;stroke-width:0.817102" />
    <path
       id="path2"
       style="opacity:0.998192;fill:#8eef97;stroke:none;stroke-width:6.04724;stroke-linecap:round"
       d="m 13.136719,8.8789062 -5.1777346,0.082031 c 0,0 1.4878025,1.1152058 1.6425781,1.7539068 0.3179564,1.312088 -1.4608787,1.16787 -1.0761719,3.310547 0.4202933,2.34088 3.8361334,2.330042 4.1640624,0.171875 0.327929,-2.158169 -1.271726,-1.922471 -1.222656,-3.41211 0.02279,-0.69195 1.669922,-1.90625 1.669922,-1.9062498 z m -1.041016,3.6679688 c 0.405212,-0.04228 0.653395,1.176349 0.294922,1.925781 -0.325728,0.680976 -0.855529,0.655129 -0.976563,0.433594 -0.17345,-0.317478 0.328872,-0.40008 0.470704,-1.007812 0.171502,-0.735128 -0.402739,-1.111181 0.15039,-1.335938 0.02064,-0.0084 0.04062,-0.01355 0.06055,-0.01563 z m -1.103515,2.332031 a 0.33456334,0.33456334 0 0 1 0.333984,0.333985 0.33456334,0.33456334 0 0 1 -0.333984,0.333984 0.33456334,0.33456334 0 0 1 -0.335938,-0.333984 0.33456334,0.33456334 0 0 1 0.335938,-0.333985 z" />
  </g>
</svg>
